<?xml version="1.0" standalone="no"?><!DOCTYPE svg PUBLIC "-//W3C//DTD SVG 1.1//EN" "http://www.w3.org/Graphics/SVG/1.1/DTD/svg11.dtd"><svg t="1677919611956" class="icon" viewBox="0 0 1024 1024" version="1.1" xmlns="http://www.w3.org/2000/svg" p-id="3796" xmlns:xlink="http://www.w3.org/1999/xlink" width="200" height="200"><path d="M512 2.373117C230.785632 2.373117 2.966396 230.192352 2.966396 511.406721S230.785632 1020.440324 512 1020.440324s509.033604-227.819235 509.033604-509.033603S793.214368 2.373117 512 2.373117z m186.289687 719.054461c15.425261 15.425261 15.425261 40.34299 0 55.768251L622.349942 853.135574a39.393743 39.393743 0 0 1-55.76825 0L331.643105 619.383546c-1.186559-1.186559-2.373117-1.186559-2.373117-2.373117l-77.126303-77.126304c-3.559676-3.559676-7.119351-8.30591-8.30591-13.052144-5.932793-14.238702-3.559676-32.03708 8.30591-42.716106l77.126303-77.126304c1.186559-1.186559 3.559676-3.559676 5.932793-4.746234l232.565469-232.565469c15.425261-15.425261 40.34299-15.425261 55.768251 0l77.126303 77.126303c15.425261 15.425261 15.425261 40.34299 0 55.768251L489.455388 511.406721l208.834299 210.020857z" p-id="3797" fill="#6B924D"></path></svg>