<?xml version="1.0" standalone="no"?><!DOCTYPE svg PUBLIC "-//W3C//DTD SVG 1.1//EN" "http://www.w3.org/Graphics/SVG/1.1/DTD/svg11.dtd"><svg t="1677919398313" class="icon" viewBox="0 0 1024 1024" version="1.1" xmlns="http://www.w3.org/2000/svg" p-id="2746" xmlns:xlink="http://www.w3.org/1999/xlink" width="200" height="200"><path d="M512 2.373117C230.785632 2.373117 2.966396 230.192352 2.966396 511.406721S230.785632 1020.440324 512 1020.440324s509.033604-227.819235 509.033604-509.033603S793.214368 2.373117 512 2.373117z m259.856315 537.511008L695.91657 617.010429c-1.186559 1.186559-3.559676 3.559676-5.932792 4.746234L457.418308 853.135574a39.393743 39.393743 0 0 1-55.76825 0l-77.126304-77.126304a39.393743 39.393743 0 0 1 0-55.76825l208.834299-208.834299L325.710313 302.572422a39.393743 39.393743 0 0 1 0-55.768251l77.126303-77.126303c15.425261-15.425261 40.34299-15.425261 55.768251 0L693.543453 404.616454c1.186559 1.186559 2.373117 1.186559 2.373117 2.373117l77.126304 77.126304c3.559676 3.559676 7.119351 8.30591 8.305909 13.052144 4.746234 14.238702 2.373117 30.850521-9.492468 42.716106z" p-id="2747" fill="#6B924D"></path></svg>