<?xml version="1.0" standalone="no"?><!DOCTYPE svg PUBLIC "-//W3C//DTD SVG 1.1//EN" "http://www.w3.org/Graphics/SVG/1.1/DTD/svg11.dtd"><svg t="1677479307421" class="icon" viewBox="0 0 1024 1024" version="1.1" xmlns="http://www.w3.org/2000/svg" p-id="3987" xmlns:xlink="http://www.w3.org/1999/xlink" width="64" height="64"><path d="M711.253853 349.155582a287.704527 287.704527 0 0 0-184.613451-182.785595 36.557119 36.557119 0 0 0-22.299843 69.458526 214.590289 214.590289 0 0 1 137.454768 136.358054 36.557119 36.557119 0 1 0 69.458526-23.030985z" fill="#486E53" p-id="3988"></path><path d="M1013.215657 961.487326l-239.44913-239.44913a438.685429 438.685429 0 1 0-51.545538 51.545538l239.44913 239.44913a36.557119 36.557119 0 0 0 51.545538-51.545538zM73.332125 439.086095a365.571191 365.571191 0 1 1 365.571191 365.571191A365.571191 365.571191 0 0 1 73.332125 439.086095z" fill="#486E53" p-id="3989"></path></svg>