<?xml version="1.0" standalone="no"?><!DOCTYPE svg PUBLIC "-//W3C//DTD SVG 1.1//EN" "http://www.w3.org/Graphics/SVG/1.1/DTD/svg11.dtd"><svg t="1677678372425" class="icon" viewBox="0 0 1024 1024" version="1.1" xmlns="http://www.w3.org/2000/svg" p-id="2751" xmlns:xlink="http://www.w3.org/1999/xlink" width="200" height="200"><path d="M560 512.414C560 453.643 512.357 406 453.586 406H204.414C145.643 406 98 453.643 98 512.414v0.172C98 571.357 145.643 619 204.414 619h249.172C512.357 619 560 571.357 560 512.586v-0.172z" fill="#486E53" p-id="2752"></path><path d="M630.024 211.105l20.067 16.805 124.46 103.419L818 366.98v0.146l39.008 33.527 24.734 21.15c22.165 18.618 35.789 41.557 41.386 65.588 5.395 23.169 2.94 47.343-7.045 69.656-7.398 16.532-19.033 32.047-34.867 45.347l-21.025 17.62a128.674 128.674 0 0 1-3.92 3.425l-40.2 33.659-42.484 35.575-118.372 99.341a133.759 133.759 0 0 1-5.123 4.078l-20.068 16.805c-36.162 30.236-79.744 36.785-117.069 22.211-24.069-9.397-45.542-27.555-60.722-53.889l-2.171-3.77c-5.856-13.007-9.497-27.58-10.563-43.322l-0.455 0.443s41.854-154.592 41.854-222.471-41.758-212.887-41.758-212.887c0.035-19.354 3.923-37.113 10.923-52.66l2.171-3.77c14.42-25.015 34.524-42.636 57.131-52.395a112.775 112.775 0 0 1 3.59-1.494c37.325-14.574 80.907-8.024 117.069 22.212z" fill="#486E53" p-id="2753"></path></svg>